<?xml version="1.0" encoding="utf-8"?>
<!-- Generator: Adobe Illustrator 26.0.3, SVG Export Plug-In . SVG Version: 6.00 Build 0)  -->
<svg version="1.1" id="Layer_1" xmlns="http://www.w3.org/2000/svg" xmlns:xlink="http://www.w3.org/1999/xlink" x="0px" y="0px"
	 viewBox="0 0 288 288" style="enable-background:new 0 0 288 288;" xml:space="preserve">
<style type="text/css">
	.st0{fill:none;stroke:#000000;stroke-width:3.2116;}
</style>
<g>
	<g>
		<g>
			<path d="M190.57,97c-7.2,0-13.05,5.84-13.05,13.05c0,1.19,0.21,2.32,0.51,3.41h25.08c0.3-1.09,0.51-2.22,0.51-3.41
				C203.62,102.84,197.78,97,190.57,97z M184.35,124.74h12.45l2.73-4.62h-17.91L184.35,124.74z M180.35,118.08h20.45
				c0.33-0.42,0.66-0.85,0.94-1.3H179.4C179.68,117.24,180.01,117.66,180.35,118.08z"/>
			<path d="M195.19,174.48c0,2.55-2.07,4.62-4.61,4.62l0,0c-2.55,0-4.62-2.06-4.62-4.62"/>
			<path d="M184.54,126.57l1.41,46.7h9.23l1.41-46.7H184.54z M194.35,145.78c0,0.67-0.54,1.2-1.21,1.2c-0.67,0-1.21-0.54-1.21-1.2
				v-7.83c0-0.67,0.54-1.21,1.21-1.21c0.66,0,1.21,0.54,1.21,1.21V145.78z"/>
		</g>
		<g>
			<g>
				<path d="M155.29,173.68l-6.48-17.17c0.37-0.56,0.74-1.12,1.08-1.71c3.05-5.18,4.58-10.98,4.58-17.4c0-6.42-1.52-12.22-4.58-17.4
					c-3.05-5.18-7.23-9.23-12.54-12.16c-5.31-2.92-11.27-4.39-17.88-4.39c-6.61,0-12.6,1.48-17.97,4.44
					c-5.37,2.96-9.57,7.01-12.59,12.16c-3.02,5.15-4.53,10.93-4.53,17.35c0,6.42,1.51,12.21,4.53,17.36
					c3.02,5.15,7.22,9.2,12.59,12.16c5.37,2.96,11.36,4.43,17.97,4.43c5.97,0,11.4-1.2,16.3-3.58L155.29,173.68z M141.7,133.58
					c3.04,0,5.5,2.46,5.5,5.5c0,3.03-2.46,5.5-5.5,5.5c-3.03,0-5.5-2.46-5.5-5.5C136.2,136.04,138.67,133.58,141.7,133.58z
					 M97.16,144.58c-3.03,0-5.5-2.46-5.5-5.5c0-3.04,2.46-5.5,5.5-5.5c3.04,0,5.5,2.46,5.5,5.5
					C102.65,142.11,100.19,144.58,97.16,144.58z M119.43,144.58c-3.04,0-5.5-2.46-5.5-5.5c0-3.04,2.46-5.5,5.5-5.5
					c3.03,0,5.5,2.46,5.5,5.5C124.93,142.11,122.46,144.58,119.43,144.58z"/>
			</g>
		</g>
		<path class="st0" d="M151.94,169.86c4.58,5.13,10.54,10.3,17.93,8.28c4.22-1.16,0.99-5.69-2.21-4.26
			c-2.07,0.93-2.92,3.98-2.94,6.04c-0.1,15.95,26,14.49,25.84-3.13"/>
	</g>
</g>
</svg>
