<?xml version="1.0" encoding="utf-8"?>
<!-- Generator: Adobe Illustrator 26.0.3, SVG Export Plug-In . SVG Version: 6.00 Build 0)  -->
<svg version="1.1" id="Layer_1" xmlns="http://www.w3.org/2000/svg" xmlns:xlink="http://www.w3.org/1999/xlink" x="0px" y="0px"
	 viewBox="0 0 288 288" style="enable-background:new 0 0 288 288;" xml:space="preserve">
<style type="text/css">
	.st0{fill:none;stroke:#000000;stroke-width:1.0777;}
</style>
<g>
	<g>
		<path d="M58.67,141.69c-0.79-0.9-1.76-1.57-2.89-2.01c-1.06-0.41-2.42-0.82-4.08-1.23c-1.37-0.34-2.46-0.65-3.24-0.92
			c-0.72-0.25-1.29-0.61-1.74-1.06c-0.38-0.39-0.57-0.85-0.58-1.59c0.01-0.97,0.35-1.64,1.17-2.29c0.78-0.6,2.08-0.97,3.94-0.97
			c0.94,0,1.91,0.14,2.91,0.43c0.99,0.29,1.91,0.72,2.79,1.29l0.81,0.53l1.44-3.39l-0.54-0.37c-0.98-0.68-2.12-1.2-3.42-1.57
			c-1.3-0.37-2.63-0.56-3.98-0.56c-1.91,0-3.56,0.29-4.94,0.9c-1.34,0.6-2.41,1.44-3.1,2.52c-0.68,1.05-1.03,2.25-1.03,3.53
			c0,1.52,0.4,2.84,1.27,3.83c0.8,0.9,1.77,1.59,2.89,2.03c1.05,0.41,2.42,0.83,4.13,1.26c1.4,0.34,2.48,0.65,3.22,0.92
			c0.69,0.25,1.25,0.6,1.71,1.05c0.37,0.37,0.56,0.83,0.57,1.57c-0.02,0.94-0.34,1.58-1.17,2.21c-0.79,0.58-2.12,0.95-4.03,0.95
			c-1.33,0-2.62-0.23-3.88-0.7c-1.26-0.47-2.23-1.07-2.94-1.78l-0.79-0.79l-1.69,3.33l0.39,0.41c0.95,1,2.24,1.75,3.85,2.32
			c1.61,0.56,3.3,0.85,5.05,0.85c1.91,0,3.57-0.28,4.96-0.88c1.37-0.59,2.44-1.42,3.15-2.51c0.69-1.05,1.05-2.25,1.05-3.53
			C59.93,143.97,59.53,142.67,58.67,141.69z"/>
		<path d="M110.06,146.22c-1.59,1.63-3.53,2.43-6.04,2.44c-1.65,0-3.11-0.37-4.44-1.11c-1.33-0.75-2.35-1.74-3.1-3.03
			c-0.75-1.28-1.12-2.7-1.12-4.33c0-1.62,0.38-3.05,1.12-4.33c0.75-1.29,1.77-2.28,3.1-3.03c1.33-0.74,2.79-1.11,4.44-1.11
			c2.49,0.01,4.44,0.8,6.05,2.42l0.57,0.58l2.63-2.63l-0.52-0.57c-1.06-1.16-2.37-2.04-3.88-2.64c-1.51-0.59-3.15-0.89-4.9-0.89
			c-2.34,0-4.49,0.52-6.4,1.57c-1.91,1.05-3.43,2.52-4.52,4.38c-1.09,1.86-1.63,3.97-1.63,6.25c0,2.28,0.54,4.38,1.63,6.25
			c1.08,1.86,2.6,3.33,4.5,4.38v0c1.9,1.05,4.05,1.57,6.39,1.57h0.01c1.75,0,3.39-0.3,4.91-0.9c1.52-0.61,2.83-1.49,3.9-2.65
			l0.52-0.57l-2.63-2.63L110.06,146.22z M97.92,150.11L97.92,150.11L97.92,150.11L97.92,150.11z"/>
		<rect x="117.12" y="128.18" width="3.99" height="24.02"/>
		<path d="M137.84,128.18h-3.37l-10.98,24.01h4.24l2.69-5.98l11.43,0l2.69,5.98h4.28L137.84,128.18z M132.01,142.68l4.13-9.24
			l4.13,9.24H132.01z"/>
		<polygon points="155.18,148.53 155.18,128.18 151.2,128.18 151.2,152.2 167.73,152.2 167.73,148.53 		"/>
		<polygon points="186,148.53 199.95,130.9 199.95,128.18 180.57,128.18 180.57,131.85 194.33,131.85 180.35,149.48 180.35,152.2 
			200.33,152.2 200.33,148.53 		"/>
		<polygon points="208.11,148.53 208.11,141.83 219.69,141.83 219.69,138.2 208.11,138.2 208.11,131.85 221.1,131.85 221.1,128.18 
			204.12,128.18 204.12,152.2 221.58,152.2 221.58,148.53 		"/>
		<path d="M240.75,144.09c1.31-0.58,2.38-1.42,3.18-2.51c1-1.36,1.49-3.03,1.49-4.91c0.01-2.57-0.91-4.74-2.72-6.25
			c-1.81-1.52-4.26-2.24-7.24-2.24h-9.19v24.02h3.98v-7.1h5.21c0.48,0,0.95-0.02,1.4-0.06l5.09,7.16h4.58L240.75,144.09z
			 M239.96,140.18c-0.97,0.82-2.46,1.28-4.57,1.28h-5.14v-9.61h5.14c2.11,0,3.6,0.46,4.57,1.27c0.97,0.81,1.46,1.91,1.47,3.55
			C241.42,138.27,240.94,139.35,239.96,140.18"/>
		<g>
			<path d="M169.78,133.71h6.86c0.11-0.14,0.22-0.28,0.32-0.44h-7.5C169.55,133.43,169.67,133.57,169.78,133.71z M176.22,134.39
				h-6.01l0.92,1.55h4.18 M173.21,126.64c-2.42,0-4.38,1.96-4.38,4.38c0,0.4,0.06,0.78,0.16,1.15h8.44c0.1-0.37,0.16-0.75,0.16-1.15
				C177.59,128.6,175.63,126.64,173.21,126.64z"/>
			<path d="M174.76,152.63c0,0.86-0.69,1.55-1.55,1.55l0,0c-0.86,0-1.55-0.69-1.55-1.55"/>
			<path d="M171.19,136.56l0.47,15.67h3.1l0.47-15.67H171.19z M174.48,143c0,0.22-0.18,0.4-0.4,0.4s-0.4-0.18-0.4-0.4v-2.63
				c0-0.22,0.18-0.4,0.4-0.4s0.4,0.18,0.4,0.4V143z"/>
		</g>
		<path d="M85.88,147.47c0.24-0.33,0.48-0.67,0.69-1.03c1.1-1.86,1.65-3.97,1.65-6.25c0-2.28-0.55-4.38-1.65-6.25
			c-1.09-1.86-2.61-3.33-4.51-4.38c-1.91-1.05-4.05-1.57-6.39-1.57c-2.34,0-4.5,0.53-6.42,1.59c-1.92,1.05-3.45,2.53-4.53,4.38
			c-1.09,1.85-1.63,3.95-1.63,6.23c0,2.28,0.54,4.38,1.63,6.23c1.08,1.85,2.61,3.33,4.53,4.38c1.93,1.06,4.08,1.59,6.42,1.59h0.01
			c2.33,0,4.48-0.52,6.38-1.57c0.07-0.04,0.13-0.08,0.19-0.11l5.48,1.66L85.88,147.47z M82.83,138.98c0.97,0,1.75,0.78,1.75,1.75
			s-0.78,1.75-1.75,1.75c-0.97,0-1.75-0.78-1.75-1.75S81.87,138.98,82.83,138.98z M68.65,142.49c-0.97,0-1.75-0.78-1.75-1.75
			s0.78-1.75,1.75-1.75c0.97,0,1.75,0.78,1.75,1.75S69.61,142.49,68.65,142.49z M75.74,142.49c-0.97,0-1.75-0.78-1.75-1.75
			s0.78-1.75,1.75-1.75c0.97,0,1.75,0.78,1.75,1.75S76.71,142.49,75.74,142.49z"/>
	</g>
	<path class="st0" d="M173.13,153.26c0.22,6.44-7.12,7.55-12.21,7.87c-4.73,0.29-11.85,0.9-15.59-2.63
		c-1.23-1.16-1.94-2.76-0.18-3.67c1.79-0.93,3.25,0.32,3.02,2.2c-0.43,3.54-5.54,3.61-8.4,3.73c-5.52,0.24-10.43-0.62-15.5-2.83
		c-4.25-1.86-8.57-3.65-13.26-3.91c-5.31-0.3-7.59,1.45-12.65,1.58c-5.7,0.14-10.3-1.21-13.47-7.14"/>
</g>
</svg>
